<?xml version="1.0" encoding="UTF-8" standalone="no"?><!-- Generator: Gravit.io --><svg xmlns="http://www.w3.org/2000/svg" xmlns:xlink="http://www.w3.org/1999/xlink" style="isolation:isolate" viewBox="0 0 290 810" width="290pt" height="810pt"><defs><clipPath id="_clipPath_v0F660EXgMMmYbX9xLfh4YQFwpLNJ53q"><rect width="290" height="810"/></clipPath></defs><g clip-path="url(#_clipPath_v0F660EXgMMmYbX9xLfh4YQFwpLNJ53q)"><clipPath id="_clipPath_iPegu5F8YUN8JEDSBtC7PX0cCK2It25y"><rect x="-241.5" y="0" width="810" height="810" transform="matrix(1,0,0,1,0,0)" fill="rgb(5,241,199)"/></clipPath><g clip-path="url(#_clipPath_iPegu5F8YUN8JEDSBtC7PX0cCK2It25y)"><g><clipPath id="_clipPath_48ZipRuzrEG1rYa7oF6S5JahJLlbm0Wx"><path d=" M 42.514 10.137 L 284.486 10.137 L 284.486 799.887 L 42.514 799.887 L 42.514 10.137 Z " fill="rgb(165,49,180)"/></clipPath><g clip-path="url(#_clipPath_48ZipRuzrEG1rYa7oF6S5JahJLlbm0Wx)"><g><g><path d=" M 65.068 97.887 L 43.143 97.887 L 43.143 10.137 L 65.068 10.137 C 137.729 10.137 196.627 69.066 196.627 141.762 L 196.627 295.324 C 196.627 309.133 203.123 322.133 214.166 330.422 L 266.791 369.91 C 277.318 377.813 283.748 390.031 284.291 403.188 C 284.838 416.348 279.451 429.059 269.611 437.809 L 211.346 489.605 C 201.982 497.934 196.627 509.871 196.627 522.402 L 196.627 668.262 C 196.627 740.957 137.729 799.887 65.068 799.887 L 43.143 799.887 L 43.143 712.137 L 65.068 712.137 C 89.287 712.137 108.92 692.492 108.92 668.262 L 108.92 522.402 C 108.92 484.801 124.99 448.996 153.088 424.016 L 171.225 407.887 L 161.545 400.621 C 128.416 375.762 108.92 336.754 108.92 295.324 L 108.92 141.762 C 108.92 117.527 89.287 97.887 65.068 97.887 Z " fill-rule="evenodd" fill="rgb(5,241,199)"/></g></g></g><path d=" M -143.777 10.137 L 98.5 10.137 L 98.5 799.887 L -143.777 799.887 L -143.777 10.137 Z " fill="none"/></g></g></g></svg>